<svg xmlns="http://www.w3.org/2000/svg" xmlns:xlink="http://www.w3.org/1999/xlink" width="36" height="24" viewBox="0 0 36 24"><defs><path id="2t3ea" d="M1031 2581h-8l-.02-2.13h7.95v1.88zm-13.32 7.47c.51.76.77 1.68.77 2.76a5.3 5.3 0 0 1-.88 3 5.31 5.31 0 0 1-1.4 1.48c-.62.46-3.59 1.79-3.59 1.79l-1.58.5h-9v-21h9c2.4.04 4.91 1.79 5.92 3.1.6.8.9 1.75.9 2.87 0 1.15-.3 2.07-.91 2.77-.34.4-.84.75-1.5 1.07 1 .35 1.76.9 2.27 1.66zM1006 2586l5.4-.26c.86 0 1.15-.39 1.68-.7.54-.3.8-.86.8-1.65 0-.88-.35-1.46-1.06-1.74-.6-.2-1.65-.62-2.6-.62l-4.22-.03zm8.29 4.96c0-.98-.42-1.65-1.26-2.02-.47-.2-.78-.84-1.63-.85l-5.4-.09v6l5.4-.03c.86 0 1.11-.43 1.59-.66.86-.4 1.3-1.19 1.3-2.35zm19.6-3.06c.1.61.13 1.5.12 2.68h-10.3c.05 1.35.54 2.3 1.47 2.84.56.34 1.24.5 2.04.5.84 0 1.53-.2 2.06-.61.28-.22.54-.53.76-.93h3.77c-.1.8-.55 1.62-1.37 2.44-1.27 1.31-3.04 1.97-5.32 1.97a7.97 7.97 0 0 1-4.99-1.66c-1.43-1.1-2.15-2.9-2.15-5.4 0-2.34.64-4.13 1.94-5.38a7.01 7.01 0 0 1 5.07-1.87c1.23 0 2.33.21 3.32.63.99.42 1.8 1.09 2.45 2 .58.8.95 1.73 1.12 2.79zm-4.71-1.78a3.32 3.32 0 0 0-2.2-.73c-.95 0-1.68.26-2.2.77-.53.51-.85 1.21-.99 2.09h6.38a2.89 2.89 0 0 0-1-2.13z"/></defs><g><g transform="translate(-1000 -2575)"><use fill="#424345" xlink:href="#2t3ea"/></g></g></svg>