<svg xmlns="http://www.w3.org/2000/svg" xmlns:xlink="http://www.w3.org/1999/xlink" width="26" height="26" viewBox="0 0 26 26"><defs><path id="483va" d="M972 2579.75v16.5c0 .77-.46 1.33-1.02 1.89-.55.55-.96.86-1.73.86h-16.5c-.77 0-1.53-.31-2.08-.86-.56-.56-.67-1.12-.67-1.89v-16.5c0-.77.11-1.4.67-1.96a2.9 2.9 0 0 1 2.08-.8h16.5c.77 0 1.18.25 1.73.8.56.56 1.02 1.19 1.02 1.96zm-15.57 8.17c0 1.19.43 2.2 1.3 3.03.86.84 1.9 1.26 3.1 1.26 1.23 0 2.27-.42 3.14-1.26a4.06 4.06 0 0 0 1.29-3.03c0-1.18-.43-2.2-1.3-3.03a4.33 4.33 0 0 0-3.12-1.25c-1.21 0-2.25.42-3.11 1.25a4.06 4.06 0 0 0-1.3 3.03zm13.74 7.41v-9.16h-2.75a6.89 6.89 0 0 1-.66 5.31 6.87 6.87 0 0 1-5.92 3.3 6.68 6.68 0 0 1-4.82-1.94 6.3 6.3 0 0 1-2-4.69c0-.65.37-1.38.56-1.98h-2.75v9.16c0-.18.17 1.78 1.84 1.84h14.66c1.72.05 1.84-1.84 1.84-1.84zm-.37-15.03c-.03-.95-1.1-1.1-1.1-1.1h-2.75c-.28 0-.61.31-.8.5-.2.2-.29.43-.29.7v2.37c0 .27.1.5.29.7.19.19.52.13.8.13h2.75c.41-.1.56-.09.6-.06.2-.23.5-.79.5-1.04zm-.55 3.3c-.12.12.11 0 .05-.06a.83.83 0 0 1-.05.06z"/></defs><g><g transform="translate(-948 -2575)"><use fill="#424345" xlink:href="#483va"/></g></g></svg>