<svg xmlns="http://www.w3.org/2000/svg" xmlns:xlink="http://www.w3.org/1999/xlink" width="24" height="24" viewBox="0 0 24 24"><defs><path id="bioxa" d="M915 2588a11 11 0 1 1-22 0 11 11 0 0 1 22 0zm-9-1.91l.57 1.33c.77-.14 1.6-.22 2.48-.22h.01c1.1 0 2.27.13 3.5.4a8.52 8.52 0 0 0-1.82-4.9 13.36 13.36 0 0 1-4.75 3.39zm-3.82-6.47c.74.96 1.83 2.52 2.96 4.7 1.6-.7 3.09-1.67 4.21-3.02a8.53 8.53 0 0 0-7.17-1.68zm-6.5 6.3l.68.01h.13c1.58 0 4.2-.18 6.78-.95a26.34 26.34 0 0 0-3.06-4.67 8.6 8.6 0 0 0-4.54 5.61zm1.77 7.6c.45-.69 1.22-1.72 2.36-2.76a13.59 13.59 0 0 1 4.83-2.85c-.16-.4-.32-.77-.49-1.14-3.05.97-6.06 1.11-7.79 1.12l-.94-.01v.12c0 2.1.76 4.02 2.03 5.52zm9.6 2.5a42.3 42.3 0 0 0-1.7-6.28 12.39 12.39 0 0 0-6.45 5.15 8.52 8.52 0 0 0 8.15 1.13zm5.37-6.45c-1.21-.28-2.34-.4-3.36-.4h-.03c-.62 0-1.2.04-1.76.12a44.1 44.1 0 0 1 1.59 5.77 8.58 8.58 0 0 0 3.56-5.49z"/></defs><g><g transform="translate(-892 -2576)"><use fill="#fbcd6c" xlink:href="#bioxa"/></g></g></svg>