<svg xmlns="http://www.w3.org/2000/svg" xmlns:xlink="http://www.w3.org/1999/xlink" width="21" height="25" viewBox="0 0 21 25"><defs><path id="7p9xa" d="M845.95 2589.72c1.08-1.88-.35-2.29-.57-3.65-.92-5.57 6.53-9.37 10.43-5.48 2.7 2.7.92 10.98-3.43 10.11-4.17-.82 2.04-7.4-1.29-8.7-2.7-1.06-4.13 3.21-2.85 5.33-.75 3.65-2.37 7.09-1.72 11.66 2.13-1.51 2.84-4.42 3.43-7.44 1.07.64 1.64 1.3 3 1.4 5.02.39 7.83-4.93 7.14-9.83-.6-4.35-5.01-6.56-9.71-6.04-3.72.41-7.42 3.36-7.58 7.59-.09 2.57.65 4.5 3.15 5.05z"/></defs><g><g transform="translate(-841 -2575)"><use fill="#424345" xlink:href="#7p9xa"/></g></g></svg>